<svg xmlns="http://www.w3.org/2000/svg"><defs><style>.icon { display: none; }.icon:target { display: inline; }</style></defs><svg viewBox="0 0 87.5 95.833336"><g id="src-1" class="icon">
<path d="M79.1667 58.3333V75H70.8333V58.3333H79.1667ZM29.1667 58.3333V75H25C22.7083 75 20.8333 73.125 20.8333 70.8333V58.3333H29.1667ZM50 4.16663C29.2917 4.16663 12.5 20.9583 12.5 41.6666V70.8333C12.5 77.75 18.0833 83.3333 25 83.3333H37.5V50H20.8333V41.6666C20.8333 25.5416 33.875 12.5 50 12.5C66.125 12.5 79.1667 25.5416 79.1667 41.6666V50H62.5V83.3333H79.1667V87.5H50V95.8333H75C81.9167 95.8333 87.5 90.25 87.5 83.3333V41.6666C87.5 20.9583 70.7083 4.16663 50 4.16663Z" fill="#3077C6"/>
</g></svg><svg viewBox="0 0 83.666664 83.666664"><g id="src-2" class="icon">
<path d="M54.5 8.66671V37.8334H13.5417L8.66666 42.7084V8.66671H54.5ZM58.6667 0.333374H4.5C2.20833 0.333374 0.333328 2.20837 0.333328 4.50004V62.8334L17 46.1667H58.6667C60.9583 46.1667 62.8333 44.2917 62.8333 42V4.50004C62.8333 2.20837 60.9583 0.333374 58.6667 0.333374ZM79.5 17H71.1667V54.5H17V62.8334C17 65.125 18.875 67 21.1667 67H67L83.6667 83.6667V21.1667C83.6667 18.875 81.7917 17 79.5 17Z" fill="#3077C6"/>
</g></svg><svg viewBox="0 0 100 67.333336"><g id="src-3" class="icon">
<path d="M16.6667 8.99996H91.6667V0.666626H16.6667C12.0833 0.666626 8.33333 4.41663 8.33333 8.99996V54.8333H0V67.3333H58.3333V54.8333H16.6667V8.99996ZM95.8333 17.3333H70.8333C68.5417 17.3333 66.6667 19.2083 66.6667 21.5V63.1666C66.6667 65.4583 68.5417 67.3333 70.8333 67.3333H95.8333C98.125 67.3333 100 65.4583 100 63.1666V21.5C100 19.2083 98.125 17.3333 95.8333 17.3333ZM91.6667 54.8333H75V25.6666H91.6667V54.8333Z" fill="#3077C6"/>
</g></svg><svg viewBox="0 0 91.833336 83.5"><g id="src-4" class="icon">
<path d="M83.5 29.3333H57.2083L61.1667 10.2916L61.2917 8.95829C61.2917 7.24996 60.5833 5.66663 59.4583 4.54163L55.0417 0.166626L27.625 27.625C26.0833 29.125 25.1667 31.2083 25.1667 33.5V75.1666C25.1667 79.75 28.9167 83.5 33.5 83.5H71C74.4583 83.5 77.4167 81.4166 78.6667 78.4166L91.25 49.0416C91.625 48.0833 91.8333 47.0833 91.8333 46V37.6666C91.8333 33.0833 88.0833 29.3333 83.5 29.3333ZM83.5 46L71 75.1666H33.5V33.5L51.5833 15.4166L46.9583 37.6666H83.5V46ZM0.166656 33.5H16.8333V83.5H0.166656V33.5Z" fill="#3077C6"/>
</g></svg></svg>